<svg clip-rule="evenodd" fill-rule="evenodd" stroke-linejoin="round" stroke-miterlimit="2" viewBox="0 0 64 64" xmlns="http://www.w3.org/2000/svg"><path d="m-.000749 0h64v64h-64z" fill="none"/><g fill-rule="nonzero" transform="matrix(.625 0 0 .625 1.999 2)"><path d="m0 0h96v96h-96z" fill="#3361cc"/><path d="m42 24v21c0 3.292 2.708 6 6 6s6-2.708 6-6v-13.97c7.18 2.533 12.011 9.361 12.011 16.975 0 9.874-8.125 18-18 18-9.874 0-18-8.126-18-18 0-4.771 1.897-9.351 5.269-12.725 1.127-1.127 1.76-2.657 1.76-4.25 0-3.297-2.713-6.01-6.01-6.01-1.593 0-3.123.633-4.25 1.76-5.628 5.624-8.794 13.263-8.794 21.22 0 16.458 13.543 30 30 30 16.458 0 30-13.542 30-30 0-16.452-13.534-29.993-29.986-30-3.292 0-6 2.708-6 6z" fill="#fff"/></g></svg>